<?xml version="1.0" encoding="utf-8"?>
<svg viewBox="0 0 82 21" fill="none" xmlns="http://www.w3.org/2000/svg">
  <path d="M10.1773 14.8785L10.5426 13.9716H13.6411L14.0064 14.8785H10.1773ZM9.47194 16.6923L9.82462 15.7854H14.3465L14.7369 16.6923H9.47194ZM8.76658 18.5061L9.11926 17.5992H15.0644L15.4423 18.5061H8.76658ZM1.39812 21H0.415657L8.66582 0.141584H9.64828L17.8858 21H16.916L9.15705 1.36336L1.39812 21ZM9.27041 3.51722L9.78683 4.67602L3.33785 21H2.36798L9.27041 3.51722ZM10.2781 5.9104L10.7567 7.15737L5.30277 21H4.32031L10.2781 5.9104ZM11.2353 8.40434L11.714 9.6765L7.24251 21H6.27264L11.2353 8.40434ZM23.7428 21H22.7604L14.5228 0.141584H15.4927L23.7428 21ZM13.5403 0.141584L21.7905 21H20.8206L12.5705 0.141584H13.5403ZM11.588 0.141584L19.8382 21H18.8557L10.6181 0.141584H11.588ZM47.1636 19.7175V21H39.4385L34.9944 14.1399L30.5801 21H22.9445V19.7175H25.8078L31.9819 10.3221L25.4499 0.151253H31.0274L34.9944 6.32535L38.9613 0.151253H44.5687L38.0665 10.2028L44.2704 19.7175H47.1636ZM55.7928 19.7175V21H46.0097V19.7175H48.5748V0.151253H53.2277V19.7175H55.7928ZM81.6561 19.7175V21H73.8117L71.873 16.4962H63.1338L61.1951 21H53.3507V19.7175H56.7808L65.2515 0.151253H69.7553L78.1962 19.7175H81.6561ZM67.5183 6.35517L64.8936 12.41H70.1133L67.5183 6.35517Z" style="fill: rgb(5, 7, 212);"/>
</svg>