<svg width="105" height="105" viewBox="0 0 105 105" fill="none" xmlns="http://www.w3.org/2000/svg">
<path d="M86.1021 36.705H18.896V81.6909H86.1021V36.705Z" fill="#FFC107"/>
<path d="M86.1041 36.705H52.5349V81.6909H86.1041V36.705Z" fill="#FFC107"/>
<path d="M86.1033 81.6894L61.0173 58.2219C56.2242 53.7381 48.7756 53.7381 43.9825 58.2219L18.8967 81.6894H86.1033Z" fill="#FFA000"/>
<path d="M61.0173 58.2219C58.6298 55.9884 55.5831 54.8683 52.5 54.8599V81.6896H86.1033L61.0173 58.2219Z" fill="#FFA000"/>
<path d="M86.1033 36.7047L61.8286 13.996C56.5791 9.08517 48.421 9.08517 43.1715 13.996L18.897 36.7043L43.1717 59.413C48.4213 64.3238 56.5793 64.3238 61.8289 59.413L86.1033 36.7047Z" fill="white"/>
<path d="M86.1033 36.7045H86.1029L61.8286 13.996C59.2126 11.549 55.8748 10.322 52.5 10.3136V63.0954C55.8748 63.087 59.2128 61.8602 61.8286 59.413L86.1033 36.7045L86.1035 36.7047V36.7045H86.1033Z" fill="#EBEBF0"/>
<path d="M61.7652 53.9003L52.5 59.2227L43.2347 53.9003C39.8741 51.9699 37.802 48.3898 37.802 44.5143V27.5123L52.5 20.7578L67.1979 27.5123V44.5143C67.1979 48.39 65.1258 51.9699 61.7652 53.9003Z" fill="#0507D4"/>
<path d="M52.5 20.7578V59.2227L61.7652 53.9003C65.1258 51.9699 67.198 48.3898 67.198 44.5143V27.5123L52.5 20.7578Z" fill="#6B7CF3"/>
<path d="M49.7484 47.9222L42.4329 40.6064L46.0582 36.9813L49.7484 40.6714L58.9417 31.4784L62.567 35.1036L49.7484 47.9222Z" fill="white"/>
<path d="M58.9417 31.4784L52.5 37.9195V45.1702L62.5671 35.1036L58.9417 31.4784Z" fill="#EBEBF0"/>
</svg>
