<svg width="54" height="20" viewBox="0 0 54 20" fill="none" xmlns="http://www.w3.org/2000/svg">
<g clip-path="url(#clip0_46_511)">
<path d="M6.39984 3.33337H2.2515C2.11416 3.33329 1.98131 3.3821 1.87689 3.471C1.77246 3.55991 1.70332 3.68308 1.68192 3.8183L0.00414513 14.422C-0.00356813 14.4712 -0.000491266 14.5215 0.0131624 14.5694C0.026816 14.6173 0.0507223 14.6617 0.0832362 14.6995C0.11575 14.7373 0.156099 14.7676 0.201504 14.7884C0.246909 14.8092 0.296291 14.8199 0.346251 14.8198H2.32671C2.46413 14.8199 2.59705 14.771 2.70149 14.682C2.80593 14.593 2.87502 14.4696 2.89628 14.3343L3.34878 11.4743C3.37003 11.3391 3.43903 11.2159 3.54334 11.1269C3.64766 11.0378 3.78043 10.9889 3.91775 10.9888H5.23098C7.96359 10.9888 9.54067 9.67067 9.95254 7.0586C10.1381 5.91582 9.96042 5.01792 9.4236 4.38909C8.83402 3.69858 7.78828 3.33337 6.39984 3.33337ZM6.87843 7.20613C6.65157 8.68994 5.51425 8.68994 4.41453 8.68994H3.78855L4.22771 5.91884C4.24056 5.83777 4.28202 5.76393 4.34463 5.71062C4.40723 5.6573 4.48687 5.62801 4.56921 5.62801H4.85612C5.60523 5.62801 6.31189 5.62801 6.67705 6.05368C6.8948 6.30763 6.96153 6.68493 6.87843 7.20613ZM18.8 7.15837H16.8135C16.7311 7.15837 16.6515 7.18766 16.5889 7.24098C16.5263 7.29429 16.4848 7.36813 16.472 7.4492L16.384 8.00306L16.2451 7.80232C15.8151 7.18013 14.8561 6.97214 13.8989 6.97214C11.7037 6.97214 9.8288 8.62947 9.46364 10.9543C9.27378 12.114 9.5437 13.223 10.2037 13.9963C10.809 14.7074 11.6752 15.0037 12.7058 15.0037C14.4745 15.0037 15.4554 13.8699 15.4554 13.8699L15.3668 14.4202C15.3589 14.4694 15.3618 14.5197 15.3753 14.5676C15.3888 14.6156 15.4126 14.6601 15.445 14.698C15.4774 14.736 15.5176 14.7664 15.563 14.7874C15.6083 14.8083 15.6577 14.8192 15.7077 14.8192H17.4971C17.6345 14.8193 17.7674 14.7704 17.8719 14.6814C17.9763 14.5923 18.0454 14.469 18.0667 14.3337L19.1403 7.55622C19.1482 7.50714 19.1453 7.45693 19.1318 7.40906C19.1184 7.3612 19.0946 7.31682 19.0623 7.27899C19.0299 7.24116 18.9897 7.21078 18.9444 7.18995C18.8991 7.16913 18.8499 7.15835 18.8 7.15837ZM16.031 11.0124C15.8393 12.1437 14.9386 12.9031 13.7897 12.9031C13.2129 12.9031 12.7519 12.7187 12.4559 12.3692C12.1623 12.0221 12.0507 11.5281 12.1441 10.9779C12.323 9.8563 13.2389 9.07207 14.3702 9.07207C14.9343 9.07207 15.3929 9.25891 15.695 9.61142C15.9976 9.96756 16.1177 10.4646 16.031 11.0124ZM29.3798 7.15837H27.3836C27.2895 7.15852 27.1968 7.18156 27.1136 7.2255C27.0304 7.26943 26.9592 7.33294 26.9062 7.4105L24.153 11.4532L22.986 7.56832C22.9501 7.44983 22.877 7.34599 22.7774 7.27216C22.6777 7.19832 22.5569 7.15843 22.4328 7.15837H20.4711C20.416 7.15822 20.3617 7.17119 20.3127 7.19619C20.2637 7.22119 20.2214 7.2575 20.1893 7.30209C20.1572 7.34669 20.1362 7.39829 20.1282 7.45259C20.1201 7.50689 20.1252 7.56232 20.1429 7.61427L22.3418 14.0465L20.2746 16.9555C20.2378 17.007 20.216 17.0677 20.2116 17.1308C20.2071 17.1939 20.2202 17.257 20.2493 17.3132C20.2784 17.3694 20.3225 17.4165 20.3767 17.4494C20.4309 17.4823 20.4932 17.4997 20.5566 17.4996H22.5504C22.6435 17.4998 22.7353 17.4774 22.8178 17.4344C22.9003 17.3915 22.9711 17.3292 23.0242 17.2529L29.6637 7.69953C29.6997 7.64784 29.7208 7.58732 29.7247 7.52453C29.7287 7.46174 29.7153 7.39907 29.6861 7.34331C29.6568 7.28756 29.6128 7.24085 29.5588 7.20825C29.5048 7.17565 29.4429 7.1584 29.3798 7.15837Z" fill="#253B80"/>
<path d="M35.9888 3.33386H31.8399C31.7026 3.33391 31.5699 3.38279 31.4656 3.47168C31.3613 3.56058 31.2923 3.68366 31.2709 3.81878L29.5931 14.4225C29.5853 14.4716 29.5883 14.5218 29.6018 14.5697C29.6154 14.6175 29.6392 14.6619 29.6716 14.6997C29.704 14.7375 29.7442 14.7679 29.7895 14.7887C29.8348 14.8095 29.8841 14.8203 29.934 14.8203H32.0631C32.1591 14.8202 32.252 14.7859 32.3249 14.7236C32.3979 14.6613 32.4461 14.5751 32.461 14.4805L32.9371 11.4748C32.9584 11.3396 33.0274 11.2164 33.1317 11.1273C33.236 11.0383 33.3688 10.9894 33.5061 10.9893H34.8187C37.552 10.9893 39.1284 9.67115 39.5409 7.05908C39.7271 5.9163 39.5482 5.0184 39.0114 4.38957C38.4224 3.69906 37.3773 3.33386 35.9888 3.33386ZM36.4674 7.20662C36.2411 8.69042 35.1038 8.69042 34.0035 8.69042H33.3781L33.8179 5.91932C33.8305 5.83825 33.8718 5.76435 33.9343 5.71101C33.9969 5.65766 34.0765 5.62839 34.1588 5.62849H34.4457C35.1942 5.62849 35.9015 5.62849 36.2666 6.05416C36.4844 6.30811 36.5505 6.68541 36.4674 7.20662ZM48.3884 7.15885H46.4031C46.3207 7.15862 46.241 7.18785 46.1785 7.24122C46.1159 7.29459 46.0747 7.36856 46.0622 7.44968L45.9742 8.00354L45.8347 7.8028C45.4046 7.18062 44.4463 6.97262 43.4891 6.97262C41.2939 6.97262 39.4196 8.62995 39.0544 10.9548C38.8652 12.1145 39.1339 13.2235 39.7938 13.9968C40.4004 14.7079 41.2654 15.0041 42.296 15.0041C44.0647 15.0041 45.0455 13.8704 45.0455 13.8704L44.957 14.4207C44.9491 14.4699 44.952 14.5204 44.9656 14.5684C44.9791 14.6165 45.003 14.661 45.0356 14.699C45.0681 14.7369 45.1085 14.7674 45.154 14.7882C45.1995 14.8091 45.249 14.8198 45.2991 14.8197H47.0879C47.2252 14.8196 47.358 14.7707 47.4623 14.6817C47.5666 14.5926 47.6356 14.4694 47.6568 14.3342L48.7311 7.55671C48.7387 7.50747 48.7355 7.45717 48.7218 7.40926C48.7081 7.36136 48.6841 7.31698 48.6515 7.27918C48.619 7.24139 48.5786 7.21106 48.5332 7.19029C48.4877 7.16952 48.4383 7.15879 48.3884 7.15885ZM45.6194 11.0129C45.4289 12.1442 44.5269 12.9036 43.3781 12.9036C42.8024 12.9036 42.3402 12.7192 42.0442 12.3697C41.7506 12.0226 41.6403 11.5286 41.7324 10.9784C41.9126 9.85678 42.8273 9.07255 43.9586 9.07255C44.5227 9.07255 44.9813 9.25939 45.2833 9.6119C45.5872 9.96804 45.7073 10.4651 45.6194 11.0129ZM50.7303 3.62469L49.0277 14.4225C49.0199 14.4716 49.0229 14.5218 49.0364 14.5697C49.05 14.6175 49.0737 14.6619 49.1061 14.6997C49.1385 14.7375 49.1788 14.7679 49.2241 14.7887C49.2694 14.8095 49.3187 14.8203 49.3686 14.8203H51.0803C51.3648 14.8203 51.6062 14.6147 51.6499 14.3348L53.3289 3.73171C53.3367 3.68256 53.3337 3.63232 53.3202 3.58442C53.3066 3.53653 53.2829 3.49212 53.2505 3.45426C53.2181 3.4164 53.1779 3.38598 53.1325 3.36509C53.0872 3.3442 53.0379 3.33334 52.988 3.33325H51.0712C50.989 3.33354 50.9094 3.36303 50.847 3.41643C50.7845 3.46984 50.7432 3.54366 50.7303 3.62469Z" fill="#179BD7"/>
</g>
<defs>
<clipPath id="clip0_46_511">
<rect width="53.3333" height="20" fill="white"/>
</clipPath>
</defs>
</svg>
