<svg width="52" height="77" viewBox="0 0 52 77" fill="none" xmlns="http://www.w3.org/2000/svg">
<path d="M26.0778 0C20.1556 0.00670789 14.4778 2.36228 10.2902 6.54994C6.10252 10.7376 3.74694 16.4154 3.74023 22.3376V36.698C3.74032 36.9077 3.78174 37.1154 3.86211 37.3091C3.94249 37.5028 4.06024 37.6787 4.20865 37.8269C4.35706 37.975 4.53322 38.0925 4.72704 38.1725C4.92087 38.2526 5.12857 38.2936 5.33827 38.2933H11.7202C12.1432 38.2932 12.5489 38.125 12.848 37.8259C13.1471 37.5268 13.3153 37.1211 13.3155 36.698V22.3376C13.3155 20.6614 13.6456 19.0015 14.2871 17.4529C14.9286 15.9042 15.8688 14.4971 17.0541 13.3118C18.2394 12.1265 19.6465 11.1863 21.1952 10.5448C22.7438 9.90333 24.4037 9.57316 26.0799 9.57316C27.7562 9.57316 29.416 9.90333 30.9646 10.5448C32.5133 11.1863 33.9204 12.1265 35.1057 13.3118C36.291 14.4971 37.2312 15.9042 37.8727 17.4529C38.5142 19.0015 38.8443 20.6614 38.8443 22.3376V36.698C38.8445 37.1211 39.0127 37.5268 39.3118 37.8259C39.6109 38.125 40.0166 38.2932 40.4396 38.2933H46.8222C47.2453 38.2932 47.6509 38.125 47.9501 37.8259C48.2492 37.5268 48.4173 37.1211 48.4175 36.698V22.3376C48.4106 16.4151 46.0547 10.7371 41.8666 6.54942C37.6786 2.36174 32.0004 0.00634501 26.0778 0V0Z" fill="#0507D4"/>
<path fill-rule="evenodd" clip-rule="evenodd" d="M28.2595 0.0847446C27.6228 0.0291597 26.9817 0.000690003 26.3376 0C20.4154 0.00670789 14.7376 2.36228 10.5499 6.54994C6.36228 10.7376 4.00671 16.4154 4 22.3376V36.698C4.00009 36.9077 4.0415 37.1154 4.12188 37.3091C4.20225 37.5028 4.32001 37.6787 4.46842 37.8269C4.61683 37.975 4.79298 38.0925 4.98681 38.1725C5.18064 38.2526 5.38834 38.2936 5.59804 38.2933H11.9799C12.403 38.2932 12.8086 38.125 13.1078 37.8259C13.4069 37.5268 13.575 37.1211 13.5752 36.698V22.3376C13.5752 20.6614 13.9054 19.0015 14.5469 17.4529C15.1883 15.9042 16.1286 14.4971 17.3138 13.3118C18.4991 12.1265 19.9063 11.1863 21.4549 10.5448C23.0036 9.90333 24.6634 9.57316 26.3397 9.57316C26.9838 9.57316 27.6256 9.62192 28.2595 9.71837V0.0847446Z" fill="#0507D4"/>
<path d="M46.8203 35.1021H5.33565C4.06617 35.1021 2.84869 35.6063 1.95103 36.504C1.05337 37.4017 0.549072 38.6191 0.549072 39.8886V68.6088C0.549072 70.7247 1.38959 72.7539 2.88573 74.25C4.38187 75.7461 6.41108 76.5867 8.52694 76.5867H43.629C45.7449 76.5867 47.7741 75.7461 49.2702 74.25C50.7663 72.7539 51.6069 70.7247 51.6069 68.6088V39.8886C51.6069 38.6191 51.1026 37.4017 50.2049 36.504C49.3073 35.6063 48.0898 35.1021 46.8203 35.1021Z" fill="#FFD779"/>
<path d="M10.7894 56.8287L9.11735 55.5861L10.5832 53.862L8.3584 53.3113L9.01392 51.3283L11.1188 52.1907L10.962 49.9146H13.0484L12.8758 52.1558L14.9992 51.3283L15.6369 53.3113L13.4128 53.8456L14.893 55.5861L13.1861 56.8287L11.9963 54.9148L10.7894 56.8287Z" fill="#0507D4"/>
<path d="M20.5599 56.8287L18.8879 55.5861L20.3537 53.862L18.1289 53.3113L18.7844 51.3283L20.8893 52.1907L20.7325 49.9146H22.8189L22.6463 52.1558L24.7697 51.3283L25.4074 53.3113L23.1833 53.8456L24.6635 55.5861L22.9566 56.8287L21.7668 54.9148L20.5599 56.8287Z" fill="#0507D4"/>
<path d="M30.3304 56.8287L28.6584 55.5861L30.1242 53.862L27.8994 53.3113L28.5549 51.3283L30.6599 52.1907L30.503 49.9146H32.5894L32.4168 52.1558L34.5402 51.3283L35.1779 53.3113L32.9538 53.8456L34.434 55.5861L32.7271 56.8287L31.5373 54.9148L30.3304 56.8287Z" fill="#0507D4"/>
<path d="M40.431 56.9141L38.7589 55.6716L40.2248 53.9475L38 53.3968L38.6555 51.4138L40.7604 52.2762L40.6036 50H42.69L42.5174 52.2412L44.6408 51.4138L45.2785 53.3968L43.0544 53.9311L44.5346 55.6716L42.8277 56.9141L41.6379 55.0003L40.431 56.9141Z" fill="#0507D4"/>
</svg>
