<svg width="57" height="56" viewBox="0 0 57 56" fill="none" xmlns="http://www.w3.org/2000/svg">
<circle cx="28.7891" cy="28" r="28" fill="#F4F7FE"/>
<path d="M21.074 24.3142H21.3476C22.4013 24.3142 23.2634 25.1763 23.2634 26.23V35.8088C23.2634 36.8624 22.4013 37.7245 21.3476 37.7245H21.074C20.0203 37.7245 19.1582 36.8624 19.1582 35.8088V26.23C19.1582 25.1763 20.0203 24.3142 21.074 24.3142ZM28.737 18.5669C29.7907 18.5669 30.6528 19.429 30.6528 20.4827V35.8088C30.6528 36.8624 29.7907 37.7245 28.737 37.7245C27.6834 37.7245 26.8213 36.8624 26.8213 35.8088V20.4827C26.8213 19.429 27.6834 18.5669 28.737 18.5669ZM36.4001 29.5141C37.4537 29.5141 38.3158 30.3762 38.3158 31.4299V35.8088C38.3158 36.8624 37.4537 37.7245 36.4001 37.7245C35.3464 37.7245 34.4843 36.8624 34.4843 35.8088V31.4299C34.4843 30.3762 35.3464 29.5141 36.4001 29.5141Z" fill="#39AD7B"/>
</svg>
