<svg width="44" height="20" viewBox="0 0 44 20" fill="none" xmlns="http://www.w3.org/2000/svg">
<g clip-path="url(#clip0_46_515)">
<path d="M19.1109 17.2954H15.6006L17.7962 3.58167H21.3063L19.1109 17.2954Z" fill="#00579F"/>
<path d="M31.8356 3.9171C31.1432 3.63962 30.0451 3.33325 28.6872 3.33325C25.2206 3.33325 22.7795 5.20055 22.7645 7.87023C22.7357 9.83991 24.5123 10.9339 25.841 11.5907C27.1991 12.2618 27.6608 12.6998 27.6608 13.298C27.6469 14.2167 26.5634 14.6402 25.5527 14.6402C24.1512 14.6402 23.4003 14.4219 22.2591 13.9107L21.7969 13.6916L21.3057 16.7701C22.129 17.149 23.6458 17.4852 25.2206 17.4999C28.9039 17.4999 31.3018 15.6615 31.3302 12.8165C31.3442 11.2554 30.4061 10.0592 28.3837 9.08175C27.1559 8.45427 26.404 8.03117 26.404 7.38915C26.4184 6.8055 27.04 6.20769 28.4259 6.20769C29.5671 6.17841 30.4056 6.4555 31.0407 6.73279L31.3582 6.87841L31.8356 3.9171Z" fill="#00579F"/>
<path d="M36.5013 12.4371C36.7904 11.6493 37.9028 8.60011 37.9028 8.60011C37.8882 8.62939 38.1913 7.79773 38.3646 7.28718L38.61 8.46884C38.61 8.46884 39.2747 11.7514 39.419 12.4371C38.8704 12.4371 37.1947 12.4371 36.5013 12.4371ZM40.8343 3.58167H38.1191C37.2818 3.58167 36.6457 3.82948 36.2844 4.7195L31.0703 17.2952H34.7536C34.7536 17.2952 35.3599 15.6026 35.4903 15.238C35.8944 15.238 39.4774 15.238 39.9972 15.238C40.098 15.7195 40.4161 17.2952 40.4161 17.2952H43.6663L40.8343 3.58167Z" fill="#00579F"/>
<path d="M12.6686 3.58167L9.23084 12.9331L8.85518 11.0365C8.21962 8.84811 6.22634 6.47045 4.00195 5.28822L7.1508 17.2808H10.8629L16.3804 3.58167H12.6686Z" fill="#00579F"/>
<path d="M6.03852 3.58289H0.390786L0.333008 3.85998C4.7386 4.998 7.65633 7.74117 8.8551 11.0383L7.62735 4.73565C7.42522 3.85978 6.80405 3.61178 6.03852 3.58289Z" fill="#FAA61A"/>
</g>
<defs>
<clipPath id="clip0_46_515">
<rect width="43.3333" height="20" fill="white" transform="translate(0.333008)"/>
</clipPath>
</defs>
</svg>
